Coordinates
version=1
nRows=21
nColumns=12
inDegrees=yes

Units are S.I. units (second, meters, Newtons, ...)
Angles are in degrees

endheader
time	SC_y	SC_z	SC_x	AC_y	AC_z	AC_x	GH_y	GH_z	GH_yy	EL_x	PS_y
       0.0              -49.48          6.148          41.46          32.62         0.3447          14.52          123.0          85.57          145.7          114.8          155.9
   0.04421              -49.47          6.147          41.46          32.62         0.3421          14.51          123.0          85.56          145.7          114.8          155.9
   0.08842              -49.47          6.146          41.46          32.62         0.3393          14.51          123.0          85.54          145.7          114.8          155.9
    0.1326              -49.46          6.145          41.46          32.62         0.3363           14.5          123.0          85.53          145.7          114.7          155.9
    0.1768              -49.46          6.144          41.47          32.62         0.3332           14.5          122.9          85.51          145.7          114.7          155.9
    0.2211              -49.45          6.142          41.47          32.62         0.3298          14.49          122.9          85.49          145.7          114.7          155.9
    0.2653              -49.45          6.141          41.47          32.62         0.3262          14.49          122.9          85.47          145.6          114.7          155.9
    0.3095              -49.44           6.14          41.48          32.62         0.3224          14.48          122.9          85.45          145.6          114.7          155.9
    0.3537              -49.44          6.138          41.48          32.62         0.3182          14.47          122.9          85.43          145.6          114.7          155.9
    0.3979              -49.43          6.136          41.49          32.62         0.3138          14.46          122.9           85.4          145.6          114.7          155.8
    0.4421              -49.42          6.135          41.49          32.62         0.3091          14.46          122.8          85.37          145.5          114.7          155.8
    0.4863              -49.42          6.133           41.5          32.62         0.3039          14.45          122.8          85.35          145.5          114.7          155.8
    0.5305              -49.41          6.131           41.5          32.62         0.2984          14.44          122.8          85.32          145.5          114.7          155.8
    0.5747               -49.4          6.129          41.51          32.62         0.2925          14.43          122.8          85.28          145.4          114.7          155.8
    0.6189              -49.39          6.126          41.51          32.62          0.286          14.41          122.7          85.25          145.4          114.7          155.8
    0.6632              -49.38          6.124          41.52          32.62          0.279           14.4          122.7          85.21          145.4          114.6          155.7
    0.7074              -49.37          6.121          41.53          32.62         0.2714          14.39          122.7          85.17          145.3          114.6          155.7
    0.7516              -49.36          6.118          41.53          32.62         0.2632          14.37          122.6          85.12          145.3          114.6          155.7
    0.7958              -49.34          6.114          41.54          32.62         0.2541          14.36          122.6          85.07          145.2          114.6          155.7
      0.84              -49.33          6.111          41.55          32.62         0.2442          14.34          122.5          85.02          145.2          114.6          155.6
    0.8842              -49.31          6.107          41.56          32.62         0.2334          14.32          122.5          84.96          145.1          114.6          155.6
